<mxfile host="app.diagrams.net" modified="2022-04-12T07:26:21.355Z" agent="5.0 (Windows)" etag="Na752rNKpTQ1sn5RNfPb" version="17.4.3" type="github">
  <diagram name="Page-1" id="e7e014a7-5840-1c2e-5031-d8a46d1fe8dd">
    <mxGraphModel dx="2062" dy="1112" grid="1" gridSize="10" guides="1" tooltips="1" connect="1" arrows="1" fold="1" page="1" pageScale="1" pageWidth="1169" pageHeight="826" background="none" math="0" shadow="0">
      <root>
        <mxCell id="0" />
        <mxCell id="1" parent="0" />
        <mxCell id="67" value="User" style="swimlane;whiteSpace=wrap;movable=0;" parent="1" vertex="1">
          <mxGeometry x="164.5" y="128" width="280" height="570" as="geometry" />
        </mxCell>
        <mxCell id="68" value="" style="ellipse;shape=startState;fillColor=#000000;strokeColor=#ff0000;" parent="67" vertex="1">
          <mxGeometry x="125" y="32" width="30" height="30" as="geometry" />
        </mxCell>
        <mxCell id="69" value="" style="edgeStyle=elbowEdgeStyle;elbow=horizontal;verticalAlign=bottom;endArrow=open;endSize=8;endFill=1;rounded=1;strokeColor=#FF0000;entryX=0.5;entryY=0;entryDx=0;entryDy=0;" parent="67" source="68" target="8ZOXw-CZGYfx_FBzJ07M-91" edge="1">
          <mxGeometry x="100" y="40" as="geometry">
            <mxPoint x="139.70689655172418" y="81.99999999999989" as="targetPoint" />
          </mxGeometry>
        </mxCell>
        <mxCell id="8ZOXw-CZGYfx_FBzJ07M-91" value="opens product page" style="rounded=1;whiteSpace=wrap;html=1;arcSize=40;fontColor=#000000;fillColor=#ffffc0;strokeColor=#ff0000;" parent="67" vertex="1">
          <mxGeometry x="80" y="102" width="120" height="40" as="geometry" />
        </mxCell>
        <mxCell id="74" value="App" style="swimlane;whiteSpace=wrap;startSize=23;movable=0;" parent="1" vertex="1">
          <mxGeometry x="444.5" y="128" width="280" height="570" as="geometry" />
        </mxCell>
        <mxCell id="77" value="" style="ellipse;html=1;shape=endState;fillColor=#000000;strokeColor=#ff0000;" parent="74" vertex="1">
          <mxGeometry x="125.5" y="532" width="30" height="30" as="geometry" />
        </mxCell>
        <mxCell id="8ZOXw-CZGYfx_FBzJ07M-93" value="show info that no&lt;br&gt;ingredients are present" style="rounded=1;whiteSpace=wrap;html=1;arcSize=40;fontColor=#000000;fillColor=#ffffc0;strokeColor=#ff0000;" parent="74" vertex="1">
          <mxGeometry x="20.5" y="209.5" width="120" height="53" as="geometry" />
        </mxCell>
        <mxCell id="8ZOXw-CZGYfx_FBzJ07M-105" style="edgeStyle=orthogonalEdgeStyle;rounded=1;orthogonalLoop=1;jettySize=auto;html=1;exitX=0.5;exitY=1;exitDx=0;exitDy=0;fontSize=12;endArrow=open;endFill=0;strokeColor=#F00000;entryX=0.5;entryY=0;entryDx=0;entryDy=0;" parent="74" source="8ZOXw-CZGYfx_FBzJ07M-93" target="77" edge="1">
          <mxGeometry relative="1" as="geometry">
            <mxPoint x="105.5" y="492" as="targetPoint" />
          </mxGeometry>
        </mxCell>
        <mxCell id="80" value="Firebase" style="swimlane;whiteSpace=wrap;startSize=23;movable=0;" parent="1" vertex="1">
          <mxGeometry x="724.5" y="128" width="280" height="570" as="geometry" />
        </mxCell>
        <mxCell id="8ZOXw-CZGYfx_FBzJ07M-95" value="&lt;div align=&quot;center&quot;&gt;&lt;font style=&quot;font-size: 12px&quot;&gt;fetch information about&lt;br&gt;Climate Impact&lt;/font&gt;&lt;/div&gt;" style="rounded=1;whiteSpace=wrap;html=1;arcSize=40;fontColor=#000000;fillColor=#ffffc0;strokeColor=#ff0000;align=center;" parent="80" vertex="1">
          <mxGeometry x="80" y="95.5" width="120" height="53" as="geometry" />
        </mxCell>
        <mxCell id="8ZOXw-CZGYfx_FBzJ07M-94" value="&lt;font color=&quot;#000000&quot;&gt;Found?&lt;/font&gt;" style="rhombus;whiteSpace=wrap;html=1;fillColor=#ffffc0;strokeColor=#ff0000;" parent="80" vertex="1">
          <mxGeometry x="100" y="212" width="80" height="48" as="geometry" />
        </mxCell>
        <mxCell id="8ZOXw-CZGYfx_FBzJ07M-92" value="list ingredients" style="rounded=1;whiteSpace=wrap;html=1;arcSize=40;fontColor=#000000;fillColor=#ffffc0;strokeColor=#ff0000;" parent="80" vertex="1">
          <mxGeometry x="-139.5" y="293" width="120" height="40" as="geometry" />
        </mxCell>
        <mxCell id="8ZOXw-CZGYfx_FBzJ07M-98" style="edgeStyle=orthogonalEdgeStyle;rounded=0;orthogonalLoop=1;jettySize=auto;html=1;exitX=0.5;exitY=1;exitDx=0;exitDy=0;entryX=0.5;entryY=0;entryDx=0;entryDy=0;fillColor=#e51400;strokeColor=#F00000;endArrow=open;endFill=0;" parent="80" source="8ZOXw-CZGYfx_FBzJ07M-95" target="8ZOXw-CZGYfx_FBzJ07M-94" edge="1">
          <mxGeometry relative="1" as="geometry">
            <mxPoint x="-234.5" y="202" as="sourcePoint" />
            <mxPoint x="205.5" y="202" as="targetPoint" />
          </mxGeometry>
        </mxCell>
        <mxCell id="8ZOXw-CZGYfx_FBzJ07M-101" value="" style="html=1;align=left;verticalAlign=bottom;endArrow=open;endSize=8;strokeColor=#ff0000;exitX=0.5;exitY=1;exitDx=0;exitDy=0;entryX=1;entryY=0.5;entryDx=0;entryDy=0;edgeStyle=orthogonalEdgeStyle;rounded=1;" parent="80" source="8ZOXw-CZGYfx_FBzJ07M-94" target="8ZOXw-CZGYfx_FBzJ07M-92" edge="1">
          <mxGeometry x="-1" relative="1" as="geometry">
            <mxPoint x="-74.5" y="312.83" as="targetPoint" />
            <mxPoint x="165" y="312.83" as="sourcePoint" />
          </mxGeometry>
        </mxCell>
        <mxCell id="8ZOXw-CZGYfx_FBzJ07M-102" value="yes" style="edgeLabel;html=1;align=center;verticalAlign=middle;resizable=0;points=[];" parent="8ZOXw-CZGYfx_FBzJ07M-101" connectable="0" vertex="1">
          <mxGeometry x="-0.8905" relative="1" as="geometry">
            <mxPoint as="offset" />
          </mxGeometry>
        </mxCell>
        <mxCell id="8ZOXw-CZGYfx_FBzJ07M-97" style="edgeStyle=orthogonalEdgeStyle;rounded=0;orthogonalLoop=1;jettySize=auto;html=1;exitX=1;exitY=0.5;exitDx=0;exitDy=0;entryX=0;entryY=0.5;entryDx=0;entryDy=0;fillColor=#e51400;strokeColor=#F00000;endArrow=open;endFill=0;" parent="1" source="8ZOXw-CZGYfx_FBzJ07M-91" target="8ZOXw-CZGYfx_FBzJ07M-95" edge="1">
          <mxGeometry relative="1" as="geometry" />
        </mxCell>
        <mxCell id="8ZOXw-CZGYfx_FBzJ07M-99" value="" style="html=1;align=left;verticalAlign=bottom;endArrow=open;endSize=8;strokeColor=#ff0000;exitX=0;exitY=0.5;exitDx=0;exitDy=0;entryX=1;entryY=0.5;entryDx=0;entryDy=0;" parent="1" source="8ZOXw-CZGYfx_FBzJ07M-94" target="8ZOXw-CZGYfx_FBzJ07M-93" edge="1">
          <mxGeometry x="-1" relative="1" as="geometry">
            <mxPoint x="600" y="370" as="targetPoint" />
            <mxPoint x="824.5" y="360.01" as="sourcePoint" />
          </mxGeometry>
        </mxCell>
        <mxCell id="8ZOXw-CZGYfx_FBzJ07M-100" value="no" style="edgeLabel;html=1;align=center;verticalAlign=middle;resizable=0;points=[];" parent="8ZOXw-CZGYfx_FBzJ07M-99" connectable="0" vertex="1">
          <mxGeometry x="-0.8905" relative="1" as="geometry">
            <mxPoint as="offset" />
          </mxGeometry>
        </mxCell>
        <mxCell id="8ZOXw-CZGYfx_FBzJ07M-104" style="edgeStyle=orthogonalEdgeStyle;rounded=1;orthogonalLoop=1;jettySize=auto;html=1;exitX=0.456;exitY=1;exitDx=0;exitDy=0;fillColor=#e51400;strokeColor=#F00000;endArrow=open;endFill=0;exitPerimeter=0;entryX=0.5;entryY=0;entryDx=0;entryDy=0;" parent="1" source="8ZOXw-CZGYfx_FBzJ07M-92" target="77" edge="1">
          <mxGeometry relative="1" as="geometry">
            <mxPoint x="640" y="470" as="sourcePoint" />
            <mxPoint x="650" y="640" as="targetPoint" />
          </mxGeometry>
        </mxCell>
      </root>
    </mxGraphModel>
  </diagram>
</mxfile>
